ffmpeg version 7.0.2-3ubuntu1 Copyright (c) 2000-2024 the FFmpeg developers
  built with gcc 14 (Ubuntu 14.2.0-2ubuntu1)
  configuration: --prefix=/usr --extra-version=3ubuntu1 --toolchain=hardened --libdir=/usr/lib/x86_64-linux-gnu --incdir=/usr/include/x86_64-linux-gnu --arch=amd64 --enable-gpl --disable-stripping --disable-libmfx --disable-omx --enable-gnutls --enable-libaom --enable-libass --enable-libbs2b --enable-libcdio --enable-libcodec2 --enable-libdav1d --enable-libflite --enable-libfontconfig --enable-libfreetype --enable-libfribidi --enable-libglslang --enable-libgme --enable-libgsm --enable-libharfbuzz --enable-libmp3lame --enable-libmysofa --enable-libopenjpeg --enable-libopenmpt --enable-libopus --enable-librubberband --enable-libshine --enable-libsnappy --enable-libsoxr --enable-libspeex --enable-libtheora --enable-libtwolame --enable-libvidstab --enable-libvorbis --enable-libvpx --enable-libwebp --enable-libx265 --enable-libxml2 --enable-libxvid --enable-libzimg --enable-openal --enable-opencl --enable-opengl --disable-sndio --enable-libvpl --enable-libdc1394 --enable-libdrm --enable-libiec61883 --enable-chromaprint --enable-frei0r --enable-ladspa --enable-libbluray --enable-libcaca --enable-libdvdnav --enable-libdvdread --enable-libjack --enable-libpulse --enable-librabbitmq --enable-librist --enable-libsrt --enable-libssh --enable-libsvtav1 --enable-libx264 --enable-libzmq --enable-libzvbi --enable-lv2 --enable-sdl2 --enable-libplacebo --enable-librav1e --enable-pocketsphinx --enable-librsvg --enable-libjxl --enable-shared
  libavutil      59.  8.100 / 59.  8.100
  libavcodec     61.  3.100 / 61.  3.100
  libavformat    61.  1.100 / 61.  1.100
  libavdevice    61.  1.100 / 61.  1.100
  libavfilter    10.  1.100 / 10.  1.100
  libswscale      8.  1.100 /  8.  1.100
  libswresample   5.  1.100 /  5.  1.100
  libpostproc    58.  1.100 / 58.  1.100
Input #0, mp3, from './full-mp3/EN/titanium.mp3':
  Duration: 00:04:05.08, start: 0.025056, bitrate: 323 kb/s
  Stream #0:0: Audio: mp3 (mp3float), 44100 Hz, stereo, fltp, 320 kb/s
      Metadata:
        encoder         : LAME3.99r
      Side data:
        replaygain: track gain - -11.800000, track peak - unknown, album gain - unknown, album peak - unknown, 
  Stream #0:1: Video: mjpeg (Baseline), yuvj444p(pc, bt470bg/unknown/unknown), 640x640 [SAR 118:118 DAR 1:1], 90k tbr, 90k tbn (attached pic)
      Metadata:
        title           : Cover of Titanium (feat. Sia) by David Guetta, Sia
        comment         : Cover (front)
Stream mapping:
  Stream #0:0 -> #0:0 (mp3 (mp3float) -> pcm_s16le (native))
Press [q] to stop, [?] for help
Output #0, wav, to './full-mp3/EN/titanium.wav':
  Metadata:
    ISFT            : Lavf61.1.100
  Stream #0:0: Audio: pcm_s16le ([1][0][0][0] / 0x0001), 16000 Hz, mono, s16, 256 kb/s
      Metadata:
        encoder         : Lavc61.3.100 pcm_s16le
      Side data:
        replaygain: track gain - -11.800000, track peak - unknown, album gain - unknown, album peak - unknown, 
[out#0/wav @ 0x621ead9dc780] video:0KiB audio:7658KiB subtitle:0KiB other streams:0KiB global headers:0KiB muxing overhead: 0.000995%
size=    7658KiB time=00:04:05.04 bitrate= 256.0kbits/s speed= 574x    
